<svg xmlns="http://www.w3.org/2000/svg" id="Layer_1" data-name="Layer 1" viewBox="0 0 64 64" width="64px" height="64px">
  <defs>
    <style>.cls-1{fill:#b71616;}.cls-2{fill:#e21b1b;fill-rule:evenodd;}.cls-3{fill:#fff;}</style>
  </defs>
  <title>red-alert</title>
  <g>
    <path class="cls-1" d="M 1.22233 48.4491 L 23.5844 5.85314 L 23.6729 5.6982 C 24.5942 4.03465 25.8393 2.61784 27.3183 1.54936 C 28.7353 0.545719 30.3831 0.00803372 32.0678 0 C 33.7509 0.000573837 35.3986 0.536538 36.812 1.54362 C 38.2942 2.61498 39.5398 4.03866 40.4574 5.70968 C 40.5251 5.83018 40.5876 5.95069 40.6449 6.07693 L 62.6424 48.1621 L 62.7622 48.4146 C 63.5902 50.228 64.0131 52.2324 63.9964 54.262 C 63.9881 55.9371 63.6017 57.584 62.8716 59.0536 C 62.0467 60.6953 60.7853 62.0192 59.2574 62.8466 L 58.9553 62.9958 C 57.4597 63.708 55.8401 64.0488 54.2111 63.9943 L 9.17455 63.9943 C 9.05478 63.9943 8.94541 63.9943 8.83084 63.9943 C 7.72784 63.9845 6.63474 63.7613 5.60204 63.3344 C 3.96109 62.6492 2.55031 61.4252 1.56084 59.8282 C 0.56668 58.202 0.0235132 56.2917 -0.001484 54.3309 C -0.0270019 52.6163 0.250571 50.9131 0.816131 49.3156 C 0.922369 49.0126 1.05673 48.7222 1.21713 48.4491 L 1.22233 48.4491 Z"/>
    <path class="cls-2" d="M 4.68548 50.9338 L 27.1569 8.12553 C 29.8805 3.39138 34.203 3.27087 36.9839 8.12553 L 59.0855 50.4173 C 60.8458 54.3251 59.9708 59.5987 54.2215 59.4667 L 9.17455 59.4667 C 5.38853 59.57 2.92527 55.9147 4.67507 50.9338 L 4.68548 50.9338 Z"/>
    <path class="cls-3" d="M 29.9795 47.4563 C 30.4659 46.9255 31.109 46.6042 31.7918 46.5497 C 32.2167 46.5181 32.6427 46.5864 33.0416 46.7505 C 33.4322 46.9192 33.7869 47.1751 34.0832 47.5022 C 34.5795 48.0457 34.8794 48.7698 34.9268 49.5393 C 34.9414 49.8079 34.9273 50.0776 34.8852 50.3427 C 34.6414 51.907 33.3879 53.034 31.948 52.9824 C 31.5397 52.9743 31.1372 52.8728 30.7658 52.684 C 30.1003 52.3466 29.5754 51.7435 29.2973 50.9969 C 29.2108 50.7628 29.1499 50.5183 29.115 50.2681 C 29.0791 50.0196 29.0686 49.7677 29.0837 49.5164 C 29.1233 49.1182 29.2238 48.7302 29.3806 48.3687 C 29.517 48.0279 29.7175 47.7226 29.9691 47.4735 L 29.9795 47.4563 Z M 34.229 41.5802 C 34.1248 44.3289 29.9014 44.3346 29.8024 41.5802 C 29.3754 36.869 28.2818 24.7152 28.3182 20.2909 C 28.3547 18.9251 29.3598 18.116 30.6929 17.8062 C 31.5527 17.6179 32.437 17.6179 33.2968 17.8062 C 34.656 18.1275 35.7184 18.9538 35.7184 20.354 L 35.7184 20.4917 L 34.229 41.5802 L 34.229 41.5802 Z"/>
  </g>
</svg>