<?xml version="1.0" encoding="utf-8"?>
<svg id="Layer_1" data-name="Layer 1" viewBox="0 0 64 64" width="64px" height="64px" xmlns="http://www.w3.org/2000/svg">
  <defs>
    <style>.cls-1{fill:#b71616;}.cls-2{fill:#e21b1b;fill-rule:evenodd;}.cls-3{fill:#fff;}</style>
  </defs>
  <title>red-alert</title>
  <g transform="matrix(0.520774, 0, 0, 0.573837, -0.001484, 0)">
    <path class="cls-1" d="M 2.35 84.43 L 45.29 10.2 L 45.46 9.93 C 47.229 7.031 49.62 4.562 52.46 2.7 C 55.181 0.951 58.345 0.014 61.58 0 C 64.812 0.001 67.976 0.935 70.69 2.69 C 73.536 4.557 75.928 7.038 77.69 9.95 C 77.82 10.16 77.94 10.37 78.05 10.59 L 120.29 83.93 L 120.52 84.37 C 122.11 87.53 122.922 91.023 122.89 94.56 C 122.874 97.479 122.132 100.349 120.73 102.91 C 119.146 105.771 116.724 108.078 113.79 109.52 L 113.21 109.78 C 110.338 111.021 107.228 111.615 104.1 111.52 L 17.62 111.52 C 17.39 111.52 17.18 111.52 16.96 111.52 C 14.842 111.503 12.743 111.114 10.76 110.37 C 7.609 109.176 4.9 107.043 3 104.26 C 1.091 101.426 0.048 98.097 0 94.68 C -0.049 91.692 0.484 88.724 1.57 85.94 C 1.774 85.412 2.032 84.906 2.34 84.43 L 2.35 84.43 Z"/>
    <path class="cls-2" d="M 9 88.76 L 52.15 14.16 C 57.38 5.91 65.68 5.7 71.02 14.16 L 113.46 87.86 C 116.84 94.67 115.16 103.86 104.12 103.63 L 17.62 103.63 C 10.35 103.81 5.62 97.44 8.98 88.76 L 9 88.76 Z"/>
    <path class="cls-3" d="M 57.57 82.7 C 58.504 81.775 59.739 81.215 61.05 81.12 C 61.866 81.065 62.684 81.184 63.45 81.47 C 64.2 81.764 64.881 82.21 65.45 82.78 C 66.403 83.727 66.979 84.989 67.07 86.33 C 67.098 86.798 67.071 87.268 66.99 87.73 C 66.522 90.456 64.115 92.42 61.35 92.33 C 60.566 92.316 59.793 92.139 59.08 91.81 C 57.802 91.222 56.794 90.171 56.26 88.87 C 56.094 88.462 55.977 88.036 55.91 87.6 C 55.841 87.167 55.821 86.728 55.85 86.29 C 55.926 85.596 56.119 84.92 56.42 84.29 C 56.682 83.696 57.067 83.164 57.55 82.73 L 57.57 82.7 Z M 65.73 72.46 C 65.53 77.25 57.42 77.26 57.23 72.46 C 56.41 64.25 54.31 43.07 54.38 35.36 C 54.45 32.98 56.38 31.57 58.94 31.03 C 60.591 30.702 62.289 30.702 63.94 31.03 C 66.55 31.59 68.59 33.03 68.59 35.47 L 68.59 35.71 L 65.73 72.46 L 65.73 72.46 Z"/>
  </g>
</svg>