<svg xmlns="http://www.w3.org/2000/svg" id="Layer_1" data-name="Layer 1" viewBox="0 0 16 16" width="16px" height="16px">
  <defs>
    <style>.cls-1{fill:#b71616;}.cls-2{fill:#e21b1b;fill-rule:evenodd;}.cls-3{fill:#fff;}</style>
  </defs>
  <title>red-alert</title>
  <g>
    <path class="cls-1" d="M 0.303261 12.1123 L 5.89375 1.46329 L 5.91588 1.42456 C 6.14619 1.00867 6.45748 0.654465 6.82723 0.387342 C 7.18149 0.13643 7.59342 0.00200844 8.01459 0 C 8.43538 0.00014346 8.84731 0.134135 9.20065 0.385907 C 9.57118 0.653747 9.8826 1.00967 10.112 1.42743 C 10.1289 1.45755 10.1445 1.48768 10.1589 1.51924 L 15.6582 12.0406 L 15.6882 12.1037 C 15.8952 12.5571 16.0009 13.0582 15.9967 13.5656 C 15.9946 13.9843 15.898 14.3961 15.7155 14.7635 C 15.5093 15.1739 15.194 15.5049 14.812 15.7117 L 14.7365 15.749 C 14.3625 15.9271 13.9576 16.0123 13.5504 15.9987 L 2.29131 15.9987 C 2.26136 15.9987 2.23402 15.9987 2.20538 15.9987 C 1.92963 15.9962 1.65636 15.9404 1.39818 15.8337 C 0.987946 15.6624 0.635253 15.3564 0.387886 14.9571 C 0.139348 14.5506 0.00355626 14.073 -0.002693 13.5828 C -0.00907246 13.1541 0.0603204 12.7283 0.20171 12.329 C 0.228269 12.2532 0.261859 12.1806 0.301959 12.1123 L 0.303261 12.1123 Z"/>
    <path class="cls-2" d="M 1.16904 12.7335 L 6.78687 2.03139 C 7.46778 0.847849 8.54838 0.817722 9.24361 2.03139 L 14.769 12.6044 C 15.2091 13.5814 14.9903 14.8998 13.553 14.8668 L 2.29131 14.8668 C 1.3448 14.8926 0.728992 13.9787 1.16644 12.7335 L 1.16904 12.7335 Z"/>
    <path class="cls-3" d="M 7.49252 11.8641 C 7.61412 11.7314 7.77491 11.6511 7.94559 11.6375 C 8.05183 11.6296 8.15833 11.6467 8.25805 11.6877 C 8.3557 11.7299 8.44436 11.7938 8.51844 11.8756 C 8.64251 12.0115 8.7175 12.1925 8.72935 12.3849 C 8.733 12.452 8.72948 12.5195 8.71894 12.5857 C 8.65801 12.9768 8.34463 13.2586 7.98465 13.2457 C 7.88258 13.2437 7.78194 13.2183 7.68911 13.1711 C 7.52272 13.0867 7.39149 12.9359 7.32197 12.7493 C 7.30035 12.6908 7.28512 12.6296 7.2764 12.5671 C 7.26741 12.505 7.26481 12.442 7.26859 12.3792 C 7.27848 12.2796 7.30361 12.1826 7.3428 12.0922 C 7.37691 12.007 7.42703 11.9307 7.48991 11.8684 L 7.49252 11.8641 Z M 8.55489 10.3951 C 8.52885 11.0823 7.47299 11.0837 7.44825 10.3951 C 7.34149 9.2173 7.06809 6.17882 7.0772 5.07275 C 7.08632 4.73131 7.33759 4.52903 7.67088 4.45156 C 7.88583 4.40451 8.1069 4.40451 8.32185 4.45156 C 8.66165 4.5319 8.92724 4.73848 8.92724 5.08853 L 8.92724 5.12296 L 8.55489 10.3951 L 8.55489 10.3951 Z"/>
  </g>
</svg>