<svg xmlns="http://www.w3.org/2000/svg" id="Layer_1" data-name="Layer 1" viewBox="0 0 32 32" width="32px" height="32px">
  <defs>
    <style>.cls-1{fill:#b71616;}.cls-2{fill:#e21b1b;fill-rule:evenodd;}.cls-3{fill:#fff;}</style>
  </defs>
  <title>red-alert</title>
  <g>
    <path class="cls-1" d="M 0.609619 24.2246 L 11.7906 2.92657 L 11.8349 2.84911 C 12.2955 2.01733 12.9181 1.30892 13.6576 0.774681 C 14.3661 0.27286 15.19 0.00401687 16.0323 0 C 16.8739 0.000286919 17.6978 0.268269 18.4045 0.771812 C 19.1455 1.30749 19.7684 2.01934 20.2272 2.85484 C 20.261 2.9151 20.2923 2.97535 20.3209 3.03847 L 31.3197 24.0811 L 31.3796 24.2074 C 31.7936 25.114 32.005 26.1162 31.9967 27.1311 C 31.9925 27.9686 31.7993 28.792 31.4342 29.5268 C 31.0218 30.3477 30.3911 31.0096 29.6271 31.4234 L 29.4761 31.498 C 28.7283 31.854 27.9185 32.0245 27.104 31.9972 L 4.58573 31.9972 C 4.52584 31.9972 4.47116 31.9972 4.41387 31.9972 C 3.86237 31.9923 3.31582 31.8807 2.79947 31.6673 C 1.97899 31.3247 1.27361 30.7127 0.778871 29.9142 C 0.281792 29.101 0.0102086 28.1459 -0.00229 27.1655 C -0.015049 26.3082 0.123737 25.4566 0.406518 24.6578 C 0.459637 24.5063 0.526816 24.3611 0.607016 24.2246 L 0.609619 24.2246 Z"/>
    <path class="cls-2" d="M 2.34119 25.4669 L 13.5769 4.06277 C 14.9387 1.69569 17.0999 1.63544 18.4904 4.06277 L 29.5412 25.2087 C 30.4213 27.1626 29.9839 29.7994 27.1092 29.7334 L 4.58573 29.7334 C 2.69272 29.7851 1.46108 27.9574 2.33599 25.4669 L 2.34119 25.4669 Z"/>
    <path class="cls-3" d="M 14.9882 23.7282 C 15.2314 23.4628 15.553 23.3021 15.8943 23.2749 C 16.1068 23.2591 16.3198 23.2932 16.5193 23.3753 C 16.7146 23.4596 16.8919 23.5876 17.04 23.7512 C 17.2882 24.0229 17.4382 24.385 17.4619 24.7697 C 17.4692 24.904 17.4621 25.0388 17.441 25.1714 C 17.3192 25.9535 16.6924 26.5171 15.9725 26.4912 C 15.7683 26.4872 15.567 26.4364 15.3814 26.342 C 15.0486 26.1733 14.7861 25.8718 14.6471 25.4985 C 14.6039 25.3814 14.5734 25.2592 14.5559 25.1341 C 14.538 25.0099 14.5328 24.8839 14.5403 24.7582 C 14.5601 24.5591 14.6104 24.3652 14.6887 24.1844 C 14.757 24.014 14.8572 23.8613 14.983 23.7368 L 14.9882 23.7282 Z M 17.1129 20.7902 C 17.0609 22.1645 14.9491 22.1674 14.8997 20.7902 C 14.6861 18.4345 14.1393 12.3576 14.1576 10.1455 C 14.1758 9.46259 14.6783 9.05803 15.3449 8.9031 C 15.7748 8.80899 16.217 8.80899 16.6469 8.9031 C 17.3265 9.06377 17.8577 9.47693 17.8577 10.177 L 17.8577 10.2459 L 17.1129 20.7902 L 17.1129 20.7902 Z"/>
  </g>
</svg>